<?xml version="1.0" encoding="UTF-8"?>
<svg xmlns="http://www.w3.org/2000/svg" xmlns:xlink="http://www.w3.org/1999/xlink" width="384pt" height="384pt" viewBox="0 0 384 384" version="1.1">
<g id="surface1">
<path style=" stroke:none;fill-rule:nonzero;fill:rgb(0%,0%,0%);fill-opacity:1;" d="M 378.75 332.023438 L 303.976562 257.25 C 300.601562 253.875 296.023438 252 291.226562 252 L 279 252 C 299.699219 225.523438 312 192.226562 312 156 C 312 69.824219 242.175781 0 156 0 C 69.824219 0 0 69.824219 0 156 C 0 242.175781 69.824219 312 156 312 C 192.226562 312 225.523438 299.699219 252 279 L 252 291.226562 C 252 296.023438 253.875 300.601562 257.25 303.976562 L 332.023438 378.75 C 339.074219 385.800781 350.476562 385.800781 357.449219 378.75 L 378.675781 357.523438 C 385.726562 350.476562 385.726562 339.074219 378.75 332.023438 Z M 156 252 C 102.976562 252 60 209.101562 60 156 C 60 102.976562 102.898438 60 156 60 C 209.023438 60 252 102.898438 252 156 C 252 209.023438 209.101562 252 156 252 Z M 156 252 "/>
</g>
</svg>
